<svg height="1982" width="720" xmlns="http://www.w3.org/2000/svg">
<rect height="1982" fill="#555" width="720"></rect>
<text fill="#7f7" font-family="Courier New" font-size="12" xml:space="preserve">
<tspan x="10" y="26">6 megabytes installed</tspan>
<tspan x="10" y="42"></tspan>
<tspan x="10" y="58">node_modules</tspan>
<tspan x="10" y="74">└─┬ main-bower-files@2.13.1 </tspan>
<tspan x="10" y="90">  ├─┬ chalk@1.1.3 </tspan>
<tspan x="10" y="106">  │ ├── ansi-styles@2.2.1 </tspan>
<tspan x="10" y="122">  │ ├── escape-string-regexp@1.0.5 </tspan>
<tspan x="10" y="138">  │ ├─┬ has-ansi@2.0.0 </tspan>
<tspan x="10" y="154">  │ │ └── ansi-regex@2.1.1 </tspan>
<tspan x="10" y="170">  │ ├── strip-ansi@3.0.1 </tspan>
<tspan x="10" y="186">  │ └── supports-color@2.0.0 </tspan>
<tspan x="10" y="202">  ├── extend@2.0.1 </tspan>
<tspan x="10" y="218">  ├─┬ globby@2.1.0 </tspan>
<tspan x="10" y="234">  │ ├─┬ array-union@1.0.2 </tspan>
<tspan x="10" y="250">  │ │ └── array-uniq@1.0.3 </tspan>
<tspan x="10" y="266">  │ ├── async@1.5.2 </tspan>
<tspan x="10" y="282">  │ ├─┬ glob@5.0.15 </tspan>
<tspan x="10" y="298">  │ │ ├─┬ inflight@1.0.6 </tspan>
<tspan x="10" y="314">  │ │ │ └── wrappy@1.0.2 </tspan>
<tspan x="10" y="330">  │ │ ├── inherits@2.0.3 </tspan>
<tspan x="10" y="346">  │ │ ├── once@1.4.0 </tspan>
<tspan x="10" y="362">  │ │ └── path-is-absolute@1.0.1 </tspan>
<tspan x="10" y="378">  │ └── object-assign@3.0.0 </tspan>
<tspan x="10" y="394">  ├─┬ multimatch@2.1.0 </tspan>
<tspan x="10" y="410">  │ ├── array-differ@1.0.0 </tspan>
<tspan x="10" y="426">  │ ├── arrify@1.0.1 </tspan>
<tspan x="10" y="442">  │ └─┬ minimatch@3.0.3 </tspan>
<tspan x="10" y="458">  │   └─┬ brace-expansion@1.1.7 </tspan>
<tspan x="10" y="474">  │     ├── balanced-match@0.4.2 </tspan>
<tspan x="10" y="490">  │     └── concat-map@0.0.1 </tspan>
<tspan x="10" y="506">  ├── path-exists@1.0.0 </tspan>
<tspan x="10" y="522">  ├── strip-json-comments@1.0.4 </tspan>
<tspan x="10" y="538">  └─┬ vinyl-fs@2.4.4 </tspan>
<tspan x="10" y="554">    ├─┬ duplexify@3.5.0 </tspan>
<tspan x="10" y="570">    │ ├─┬ end-of-stream@1.0.0 </tspan>
<tspan x="10" y="586">    │ │ └── once@1.3.3 </tspan>
<tspan x="10" y="602">    │ └── stream-shift@1.0.0 </tspan>
<tspan x="10" y="618">    ├─┬ glob-stream@5.3.5 </tspan>
<tspan x="10" y="634">    │ ├── extend@3.0.0 </tspan>
<tspan x="10" y="650">    │ ├─┬ glob-parent@3.1.0 </tspan>
<tspan x="10" y="666">    │ │ ├─┬ is-glob@3.1.0 </tspan>
<tspan x="10" y="682">    │ │ │ └── is-extglob@2.1.1 </tspan>
<tspan x="10" y="698">    │ │ └── path-dirname@1.0.2 </tspan>
<tspan x="10" y="714">    │ ├─┬ micromatch@2.3.11 </tspan>
<tspan x="10" y="730">    │ │ ├─┬ arr-diff@2.0.0 </tspan>
<tspan x="10" y="746">    │ │ │ └── arr-flatten@1.0.3 </tspan>
<tspan x="10" y="762">    │ │ ├── array-unique@0.2.1 </tspan>
<tspan x="10" y="778">    │ │ ├─┬ braces@1.8.5 </tspan>
<tspan x="10" y="794">    │ │ │ ├─┬ expand-range@1.8.2 </tspan>
<tspan x="10" y="810">    │ │ │ │ └─┬ fill-range@2.2.3 </tspan>
<tspan x="10" y="826">    │ │ │ │   ├── is-number@2.1.0 </tspan>
<tspan x="10" y="842">    │ │ │ │   ├── isobject@2.1.0 </tspan>
<tspan x="10" y="858">    │ │ │ │   ├── randomatic@1.1.6 </tspan>
<tspan x="10" y="874">    │ │ │ │   └── repeat-string@1.6.1 </tspan>
<tspan x="10" y="890">    │ │ │ ├── preserve@0.2.0 </tspan>
<tspan x="10" y="906">    │ │ │ └── repeat-element@1.1.2 </tspan>
<tspan x="10" y="922">    │ │ ├─┬ expand-brackets@0.1.5 </tspan>
<tspan x="10" y="938">    │ │ │ └── is-posix-bracket@0.1.1 </tspan>
<tspan x="10" y="954">    │ │ ├─┬ extglob@0.3.2 </tspan>
<tspan x="10" y="970">    │ │ │ └── is-extglob@1.0.0 </tspan>
<tspan x="10" y="986">    │ │ ├── filename-regex@2.0.0 </tspan>
<tspan x="10" y="1002">    │ │ ├── is-extglob@1.0.0 </tspan>
<tspan x="10" y="1018">    │ │ ├── is-glob@2.0.1 </tspan>
<tspan x="10" y="1034">    │ │ ├─┬ kind-of@3.1.0 </tspan>
<tspan x="10" y="1050">    │ │ │ └── is-buffer@1.1.5 </tspan>
<tspan x="10" y="1066">    │ │ ├─┬ normalize-path@2.1.1 </tspan>
<tspan x="10" y="1082">    │ │ │ └── remove-trailing-separator@1.0.1 </tspan>
<tspan x="10" y="1098">    │ │ ├─┬ object.omit@2.0.1 </tspan>
<tspan x="10" y="1114">    │ │ │ ├─┬ for-own@0.1.5 </tspan>
<tspan x="10" y="1130">    │ │ │ │ └── for-in@1.0.2 </tspan>
<tspan x="10" y="1146">    │ │ │ └── is-extendable@0.1.1 </tspan>
<tspan x="10" y="1162">    │ │ ├─┬ parse-glob@3.0.4 </tspan>
<tspan x="10" y="1178">    │ │ │ ├─┬ glob-base@0.3.0 </tspan>
<tspan x="10" y="1194">    │ │ │ │ ├── glob-parent@2.0.0 </tspan>
<tspan x="10" y="1210">    │ │ │ │ └─┬ is-glob@2.0.1 </tspan>
<tspan x="10" y="1226">    │ │ │ │   └── is-extglob@1.0.0 </tspan>
<tspan x="10" y="1242">    │ │ │ ├── is-dotfile@1.0.2 </tspan>
<tspan x="10" y="1258">    │ │ │ ├── is-extglob@1.0.0 </tspan>
<tspan x="10" y="1274">    │ │ │ └── is-glob@2.0.1 </tspan>
<tspan x="10" y="1290">    │ │ └─┬ regex-cache@0.4.3 </tspan>
<tspan x="10" y="1306">    │ │   ├── is-equal-shallow@0.1.3 </tspan>
<tspan x="10" y="1322">    │ │   └── is-primitive@2.0.0 </tspan>
<tspan x="10" y="1338">    │ ├─┬ ordered-read-streams@0.3.0 </tspan>
<tspan x="10" y="1354">    │ │ └── is-stream@1.1.0 </tspan>
<tspan x="10" y="1370">    │ ├─┬ through2@0.6.5 </tspan>
<tspan x="10" y="1386">    │ │ └─┬ readable-stream@1.0.34 </tspan>
<tspan x="10" y="1402">    │ │   ├── isarray@0.0.1 </tspan>
<tspan x="10" y="1418">    │ │   └── string_decoder@0.10.31 </tspan>
<tspan x="10" y="1434">    │ ├─┬ to-absolute-glob@0.1.1 </tspan>
<tspan x="10" y="1450">    │ │ └── extend-shallow@2.0.1 </tspan>
<tspan x="10" y="1466">    │ └─┬ unique-stream@2.2.1 </tspan>
<tspan x="10" y="1482">    │   └─┬ json-stable-stringify@1.0.1 </tspan>
<tspan x="10" y="1498">    │     └── jsonify@0.0.0 </tspan>
<tspan x="10" y="1514">    ├── graceful-fs@4.1.11 </tspan>
<tspan x="10" y="1530">    ├─┬ gulp-sourcemaps@1.6.0 </tspan>
<tspan x="10" y="1546">    │ └── convert-source-map@1.5.0 </tspan>
<tspan x="10" y="1562">    ├── is-valid-glob@0.3.0 </tspan>
<tspan x="10" y="1578">    ├── lazystream@1.0.0 </tspan>
<tspan x="10" y="1594">    ├── lodash.isequal@4.5.0 </tspan>
<tspan x="10" y="1610">    ├── merge-stream@1.0.1 </tspan>
<tspan x="10" y="1626">    ├─┬ mkdirp@0.5.1 </tspan>
<tspan x="10" y="1642">    │ └── minimist@0.0.8 </tspan>
<tspan x="10" y="1658">    ├── object-assign@4.1.1 </tspan>
<tspan x="10" y="1674">    ├─┬ readable-stream@2.2.9 </tspan>
<tspan x="10" y="1690">    │ ├── buffer-shims@1.0.0 </tspan>
<tspan x="10" y="1706">    │ ├── core-util-is@1.0.2 </tspan>
<tspan x="10" y="1722">    │ ├── isarray@1.0.0 </tspan>
<tspan x="10" y="1738">    │ ├── process-nextick-args@1.0.7 </tspan>
<tspan x="10" y="1754">    │ ├── string_decoder@1.0.0 </tspan>
<tspan x="10" y="1770">    │ └── util-deprecate@1.0.2 </tspan>
<tspan x="10" y="1786">    ├─┬ strip-bom@2.0.0 </tspan>
<tspan x="10" y="1802">    │ └── is-utf8@0.2.1 </tspan>
<tspan x="10" y="1818">    ├─┬ strip-bom-stream@1.0.0 </tspan>
<tspan x="10" y="1834">    │ └── first-chunk-stream@1.0.0 </tspan>
<tspan x="10" y="1850">    ├─┬ through2@2.0.3 </tspan>
<tspan x="10" y="1866">    │ └── xtend@4.0.1 </tspan>
<tspan x="10" y="1882">    ├── through2-filter@2.0.0 </tspan>
<tspan x="10" y="1898">    ├── vali-date@1.0.0 </tspan>
<tspan x="10" y="1914">    └─┬ vinyl@1.2.0 </tspan>
<tspan x="10" y="1930">      ├── clone@1.0.2 </tspan>
<tspan x="10" y="1946">      ├── clone-stats@0.0.1 </tspan>
<tspan x="10" y="1962">      └── replace-ext@0.0.1</tspan>
</text>
</svg>
